<?xml version="1.0" encoding="UTF-8"?>
<svg id="Layer_1" data-name="Layer 1" xmlns="http://www.w3.org/2000/svg" viewBox="0 0 16 16">
  <defs>
    <style>
      .cls-1 {
        fill: #063;
      }

      .cls-1, .cls-2, .cls-3, .cls-4, .cls-5, .cls-6, .cls-7 {
        fill-rule: evenodd;
      }

      .cls-1, .cls-2, .cls-3, .cls-4, .cls-5, .cls-6, .cls-7, .cls-8, .cls-9 {
        stroke-width: 0px;
      }

      .cls-2, .cls-8 {
        fill: #a1da69;
      }

      .cls-3, .cls-9 {
        fill: #3c1e2d;
      }

      .cls-4 {
        fill: #bdeb6d;
      }

      .cls-5 {
        fill: #ffc;
      }

      .cls-6 {
        fill: #e3f77e;
      }

      .cls-7 {
        fill: #7dca56;
      }
    </style>
  </defs>
  <g>
    <g>
      <path class="cls-7" d="m8.57,1.93c3.79.29,6.61,3.61,6.32,7.41-.29,3.8-3.59,6.65-7.38,6.36-3.78-.29-6.61-3.61-6.32-7.42.29-3.8,3.59-6.65,7.37-6.36Z"/>
      <path class="cls-2" d="m10.93,2.55c2.22,1.03,3.77,3.21,3.97,5.73v1.06h0c-.19,2.59-1.78,4.73-3.96,5.75v-.91c1.51-.66,2.91-1.95,3.38-4,.7-3.09-.62-4.63-.62-4.63,0,0,.62,1.41.53,2.73-.09,1.32-.53,2.2-.97,2.43-.44.22-.17-.53-.17-.53,0,0-.4.66-1.5,1.1-.18.08-.4.13-.64.16v-5.66c.28.05.51.03.51.03,0,0,.44,0,.41-.44-.03-.34-.49-.77-.92-.96v-1.86Zm-2.36-.62c.84.07,1.64.28,2.36.62v1.86c-.13-.06-.26-.09-.37-.09-.48,0-.75.61-.38,1.09.18.23.49.33.75.37v5.66c-1.22.17-3.05-.1-4.12-.47-1.28-.44-2.08-2.56-2.47-3.09-.4-.53-.17-2.2-.08-2.73.08-.53-.26-.79-1.01.35-.75,1.14-1.54,2.73-.79,5.73.74,3,3.13,3.88,3.13,3.88l.22.04s.75-.35,2.87-.44c.71-.03,1.51-.2,2.27-.54v.91c-1.03.48-2.2.71-3.42.62-3.42-.26-6.06-3.01-6.32-6.35v-1.06h0c.29-3.81,3.59-6.66,7.37-6.37Z"/>
      <path class="cls-4" d="m8.92,1.97c3.25.42,5.73,3.09,5.97,6.31v1.06h0c-.1,1.38-.6,2.62-1.37,3.64.76-1.29,1.23-3.21.97-5.04-.12-1.6-.81-2.39-.81-2.39,0,0,.04.08.09.24-.98-1.7-2.92-2.54-4.86-2.69v-1.13h0Zm0,8.45c.84,0,1.68-.21,2.16-.59.6-.48.99-1.64.39-2.59-.47-.75-1.55-1.13-2.55-1.19v4.38Zm-.35-8.49c.12,0,.24.02.35.04v1.13c-.88-.07-1.75,0-2.54.2-2.58.64-4.1,1.9-4.61,4.91-.51,3.02.88,4.82.88,4.82,0,0,.11.18.32.45-1.09-1.2-1.76-2.78-1.8-4.48v-.35c0-.12,0-.24.02-.36.29-3.8,3.59-6.65,7.37-6.36h0Zm.35,4.11c-.26-.01-.52,0-.76.01-1.14.13-1.81.5-2.03,1.5-.23,1.01.39,1.67.39,1.67,0,0,.76.98,1.78,1.15.2.03.42.05.62.05v-4.38Z"/>
      <path class="cls-6" d="m9.95,8.38c-.01-.19-.17-.52-.38-.71-.27-.25-.64-.34-.91-.34-.48,0-.75.61-.37,1.09.24.31,1.72.79,1.66-.03Z"/>
    </g>
    <path class="cls-1" d="m11.05,5.05c-.28-.15-.96-.3-.67.22.47.86,1.53.24.67-.22Z"/>
    <path class="cls-9" d="m10.44,4.97s.02.14.09.25c.19.33.51.47.82.2.47.53-.51.5-.79.28-.25-.19-.76-.94-.12-.74Z"/>
    <path class="cls-1" d="m14.14,11.99v-1.73c.1.42.17.88.16,1.28,0,.05,0,.1,0,.15-.04.1-.09.2-.15.3h0Zm0-3.77c.16.33.44.94.47,1.07.02.13.11.62.15.98.07-.3.11-.61.13-.93v-.03c-.18-.37-.43-.72-.43-.72,0,0-.15-.4-.32-.72v.36h0Zm0-1.28v-.17c.16.11.33.24.48.38.04.04.08.08.13.12.04.19.08.38.1.58-.2-.28-.47-.64-.71-.9h0Zm0-1.12v-.19h0c.04.08.08.17.13.25l-.05-.04-.08-.02Zm0-.19v.19l-.95-.3s.57.05.95.11h0Zm0,1.14v.17c-.08-.09-.17-.17-.24-.24l-.47-.39s.34.19.7.46h0Zm0,1.09c-.07-.14-.14-.26-.21-.34-.2-.23-.64-.6-.76-.71h0s.88,1.21.88,1.21c0,0,.04.08.09.2v-.36h0Zm0,2.4v1.73c-.1.2-.21.39-.34.58.08-.24.23-.77.2-1.42-.05-.88-.2-2.01-.2-2.01,0,0,.19.51.34,1.12h0Zm-.97.98v-.59h0c.04.11.05.38,0,.59Zm-6.54,2.61c.73-.49,2.24-1.69,2.53-2.83.32-1.23.59-2.11.59-2.11l.32-.55.2-1s.13.93.06,1.27c-.07.34-.29,1.19-.29,1.3s.09.52,0,.87c-.09.34-.11.61-.24,1.01-.13.4-.4.98-.43,1.09-.04.11-.13.47-.29.69-.17.22-.67.54-.76.56-.09.02-.42.11-.42.11l-.4.33.24.04-.42.27-.34.05v.27l-.35.05v-1.42h0Zm6.54-7.03h0s-.03-.03-.03-.03c0,0,0,0,.03.03h0Zm0,3.84v.59s-.01.05-.02.08c-.08.19,0,.15-.1.59-.1.44,0,.89,0,.89,0,0-.27.61-.32.74-.03.07,0,.2.01.32-.49.46-1.04.84-1.63,1.14l.02-.08.84-1.25s.2-.27.25-.49c.05-.22.2-1.3.2-1.3,0,0,.27-.71.27-.98s-.1-.96-.1-.96c0,0,.1-.59.1-1.01s-.29-1.15-.29-1.15c0,0,.44.44.51,1.35.07.91.22,1.42.27,1.54h0Zm-6.54.21c.4-.56.79-1.2.79-1.2l-.65.59s-.05.04-.14.1v.51h0Zm0-3.47c.82-.54,2.47-1.53,2.47-1.53,0,0-.94.21-1.65.59-.24.13-.51.24-.82.35v.59h0Zm0-3.13v-.39c.31.02.57.05.7.1.39.15,1.42.5,1.42.5,0,0-1.09-.21-1.53-.21-.17,0-.36,0-.58,0h0Zm0-1.07v-.2c.47.13.99.34.99.34,0,0-.27,0-.99-.14h0Zm0-.87c.15,0,.29.03.41.07.83.24,2.03.71,2.03.71l.47.26s-.53-.74-.91-.88c-.3-.12-.99-.42-1.37-.54-.21.02-.42.06-.63.1v.28h0Zm5.22.72c.02.12.05.29.05.39v.17s.12-.18.19-.39c-.08-.06-.16-.12-.24-.17h0Zm.96.77c-.12.05-.25.12-.32.19-.15.13-.31.42-.31.42,0,0,.53-.18.73-.24.06-.01.14-.02.24-.02-.11-.12-.23-.24-.34-.35h0Zm-2.85-1.65c.2.18.44.4.56.55.24.29.42,1.12.42,1.12,0,0-.03-.71-.03-.89s-.08-.47-.08-.47l-.04-.02c-.26-.11-.53-.21-.81-.29Zm-5.27,12.33c.22-.03,1.22-.2,1.78-.55.05-.03.1-.07.17-.11v1.42h-.04s-.24.15-.34.15c-.02,0-.09,0-.18,0-.49-.15-.95-.34-1.38-.59v-.34h0Zm1.95-12.45v.28c-.3-.02-.65-.01-.99,0,.32-.12.65-.22.99-.29h0Zm0,.96v.2c-.15-.03-.32-.06-.51-.1-.38-.08-.91-.05-1.44.03v-.34s.05-.03.08-.04c.46-.02.96.11,1.39.16.13.01.3.05.48.1h0Zm0,.88v.39c-.37,0-.82,0-1.39.1-.2.03-.38.06-.56.09v-.54c.05,0,.1-.01.15-.02.42-.04,1.21-.05,1.8-.01h0Zm0,2.93v.59c-.2.13-.35.24-.42.3-.32.29-.65.83-.94.94-.09.03-.32.15-.59.3v-1.27c.07-.02.12-.04.15-.06.55-.35,1.21-.57,1.8-.79h0Zm0,3.55v.51c-.25.35-.51.67-.68.77-.44.26-.62.35-.97.56-.08.05-.18.09-.29.11v-.55l.09-.03s.38-.35.91-.71c.37-.25.75-.52.95-.66h0Zm-1.95-4.63v-.18c.36-.02.71-.03.71-.03,0,0-.36.11-.71.22Zm-.04,8.77s.01,0,.04,0v.34c-.25-.14-.48-.29-.7-.46v-.03s.66.16.66.16h0Zm.04-11.72v.34c-.25.04-.5.09-.73.14.23-.17.48-.34.73-.48h0Zm0,1.13v.54c-.63.1-1.12.21-1.53.44-.29.16-.88.67-1.37,1.1.24-.53.55-1.04.91-1.49.19-.08.32-.13.32-.13,0,0,1.01-.35,1.68-.45h0Zm0,1.63c-.27.02-.55.04-.68.08-.29.09-.94.56-1.41.88-.47.33-.73,1.06-.73,1.06,0,0,.15-.29.47-.56.32-.27,1.52-1.03,1.82-1.12.11-.03.32-.09.53-.16v-.18h0Zm0,2.11v1.27c-.64.34-1.57.85-1.71.94-.21.12-.88.85-.91,1,0,.07-.16.35-.33.66-.21-.49-.36-1-.45-1.52.06-.07.1-.11.1-.11,0,0,.85-1.22,1.97-1.86.24-.13.99-.28,1.32-.38h0Zm0,4.1v.55c-.36.1-.8.12-.8.12l-.44.26-.62-.21.5-.09.88-.47.47-.17Z"/>
  </g>
  <path class="cls-8" d="m6.06,15.27c.38.1.78.17,1.19.2h0c2.66.21,5.08-1.18,6.33-3.36.24-.42.44-.88.59-1.35.15-.48.25-.98.29-1.5h0c.14-1.87-.48-3.61-1.6-4.92-.81-.95-1.88-1.68-3.12-2.06,1.35.35,2.52,1.11,3.39,2.13,1.12,1.31,1.74,3.05,1.6,4.9h0c-.04.53-.14,1.04-.29,1.52-.15.48-.35.93-.59,1.35-1.26,2.18-3.67,3.56-6.33,3.36h0c-.5-.04-1-.14-1.46-.28Z"/>
  <path class="cls-9" d="m8.58,1.78h0c1.93.15,3.62,1.08,4.79,2.45,1.03,1.2,1.65,2.75,1.69,4.43v.29c0,.13,0,.26-.02.4h0s0,.01,0,.01c-.04.54-.14,1.07-.3,1.57-.16.5-.37.97-.62,1.42-1.22,2.12-3.51,3.53-6.07,3.53v-.3c2.45,0,4.64-1.35,5.81-3.38.24-.42.44-.88.59-1.35.15-.48.25-.98.29-1.5h0s0-.01,0-.01c.14-1.86-.48-3.6-1.6-4.9-1.11-1.31-2.73-2.19-4.58-2.33h0s0,0,0,0c-.17,0-.34-.02-.51-.02v-.3c.17,0,.35,0,.52.02h0Zm-.53,14.1c-.18,0-.36,0-.55-.02h0c-.54-.04-1.07-.15-1.56-.3-.5-.16-.97-.37-1.41-.62-1.98-1.15-3.33-3.25-3.49-5.63v-.95s0-.05,0-.08h0c.15-1.95,1.07-3.64,2.43-4.81,1.24-1.07,2.84-1.71,4.57-1.7v.3c-1.66,0-3.19.61-4.38,1.63-1.3,1.13-2.18,2.75-2.33,4.6h0c-.2,2.69,1.17,5.12,3.33,6.38.42.24.87.44,1.35.59.48.15.98.25,1.49.29h0c.17.01.35.02.52.02v.3Z"/>
  <g>
    <path class="cls-1" d="m10.97,5.69c-.3,0-.47-.17-.5-.51,0,0-.04-.59.48-.83.51-.24,1.21-.92,1.48-1.74.18-.54.14-1.12.09-1.45-.03-.18-.06-.28-.06-.28,0,0,.55.07.57.29.02.22.06.82.03,1.11-.07.59-.35,1.15-.78,1.57-.42.42-.9.77-1.07.93-.11.1-.07.27,0,.49.08.28.08.43-.25.43Z"/>
    <path class="cls-7" d="m10.53,4.84c.06-.17.18-.37.43-.49.51-.24,1.21-.92,1.48-1.74.07-.21.11-.42.12-.63.08-.15.54,1.1-.57,1.97-.3.24-.95.67-1.04.85-.09.19.22.66-.08.69-.25.03-.33-.5-.34-.66Z"/>
    <path class="cls-4" d="m10.72,4.67s-.1.28-.02.46c.08.18.15.19.14-.03,0-.22,0-.37.12-.5.14-.13.54-.32.82-.6.28-.29.33-.54.33-.54,0,0-.26.39-.73.65-.47.25-.66.57-.66.57Z"/>
    <path class="cls-5" d="m12.72.78s.26.79,0,1.69c-.25.89-.69,1.47-.69,1.47,0,0,.76-.33.91-1.42.14-1.09,0-1.55,0-1.55l-.24-.19Z"/>
    <path class="cls-9" d="m12.62.84c.18.71.15,1.52-.18,2.18-.15.31-.36.59-.61.84v-.42c.13-.17.25-.36.34-.54.34-.68.31-1.52.13-2.25l.32.2h0Zm-.79,3.58c.38-.35.81-.67,1.04-1.1.38-.71.41-1.58.23-2.46l-.33-.21c.32.76.27,1.69-.1,2.44-.2.39-.52.71-.83.99v.34Zm0-.57c-.24.23-.51.42-.81.56-.24.11-.45.44-.49.71-.03.21.12.59.12.59-.16-.21-.3-.38-.31-.6v-.09s0-.09.02-.13c.05-.22.19-.51.53-.67.36-.17.68-.46.93-.79v.42h0Zm0,.23c-.12.11-.25.22-.35.33-.24.17-.48.3-.42.66.01.12.09.34.05.5-.03.12-.17.22-.17.22.22.02.47.01.53-.14.08-.17-.11-.35-.16-.51-.07-.22.08-.28.21-.41h0c.08-.08.16-.15.24-.23.03-.02.05-.05.08-.07v-.34Z"/>
    <path class="cls-3" d="m13.05,1.18s-.27-.18-.4-.23c-.13-.05-.3-.1-.3-.1l-.15-.53s.46.25.68.4c.22.15.23.15.23.15l-.06.31Z"/>
  </g>
</svg>